<svg preserveAspectRatio="none" width="100%" height="100%" overflow="visible" style="display: block;" viewBox="0 0 51.4867 94.1951" fill="none" xmlns="http://www.w3.org/2000/svg">
<path id="Vector 439" d="M16.0761 91.7035L16.2412 91.2316L16.0761 91.7035ZM51.086 92.1936C51.3566 92.1387 51.5315 91.8748 51.4767 91.6042C51.4218 91.3336 51.1579 91.1586 50.8873 91.2135L50.9866 91.7035L51.086 92.1936ZM16.0761 0.201228C15.6188 -0.00101776 15.6187 -0.000619918 15.6183 7.91252e-05C15.6181 0.000714526 15.6176 0.00171514 15.6171 0.0029839C15.6159 0.00552158 15.6143 0.00926019 15.6121 0.014191C15.6078 0.0240526 15.6014 0.038683 15.5929 0.0580125C15.5759 0.0966714 15.5508 0.154127 15.518 0.229822C15.4523 0.38121 15.3555 0.605558 15.231 0.898402C14.9818 1.48408 14.6214 2.34379 14.1754 3.4418C13.2834 5.63773 12.0488 8.78733 10.6772 12.6048C7.9346 20.2378 4.64081 30.5502 2.44394 41.253C0.248963 51.9466 -0.860677 63.0748 0.7988 72.3209C2.46123 81.5835 6.92264 89.0302 15.911 92.1755L16.0761 91.7035L16.2412 91.2316C7.7064 88.245 3.40623 81.1881 1.78307 72.1443C0.156958 63.084 1.23771 52.103 3.42352 41.4541C5.60745 30.8143 8.88484 20.5505 11.6183 12.943C12.9846 9.14021 14.2142 6.00347 15.1019 3.81814C15.5457 2.72551 15.904 1.87085 16.1512 1.28982C16.2747 0.999305 16.3705 0.777212 16.4353 0.627999C16.4677 0.553392 16.4923 0.497007 16.5088 0.4594C16.517 0.440596 16.5232 0.426487 16.5273 0.417143C16.5294 0.412471 16.5309 0.40899 16.5319 0.406709C16.5324 0.405568 16.5328 0.404759 16.5331 0.404188C16.5333 0.40368 16.5334 0.403473 16.0761 0.201228ZM16.0761 91.7035L15.911 92.1755C22.4187 94.4527 31.2363 94.4432 38.3726 93.8823C41.9513 93.6011 45.1273 93.1793 47.4087 92.8278C48.5497 92.6521 49.4675 92.4938 50.1007 92.3794C50.4174 92.3221 50.6629 92.2758 50.8296 92.2438C50.913 92.2277 50.9767 92.2153 51.0198 92.2068C51.0413 92.2025 51.0576 92.1993 51.0687 92.197C51.0742 92.1959 51.0785 92.1951 51.0813 92.1945C51.0828 92.1942 51.0839 92.194 51.0847 92.1938C51.085 92.1938 51.0854 92.1937 51.0856 92.1937C51.0858 92.1936 51.086 92.1936 50.9866 91.7035C50.8873 91.2135 50.8873 91.2135 50.8872 91.2135C50.887 91.2135 50.8869 91.2136 50.8866 91.2136C50.886 91.2138 50.8851 91.2139 50.8839 91.2142C50.8814 91.2147 50.8776 91.2155 50.8724 91.2165C50.8621 91.2185 50.8466 91.2216 50.8259 91.2257C50.7845 91.2339 50.7225 91.2461 50.6409 91.2618C50.4776 91.2931 50.2357 91.3388 49.9229 91.3953C49.2972 91.5084 48.388 91.6652 47.2565 91.8395C44.993 92.1882 41.8424 92.6066 38.2942 92.8854C31.1766 93.4448 22.5388 93.4353 16.2412 91.2316L16.0761 91.7035Z" fill="url(#paint0_linear_0_4)"/>
<defs>
<linearGradient id="paint0_linear_0_4" x1="0.499961" y1="33.7179" x2="23.3081" y2="94.6072" gradientUnits="userSpaceOnUse">
<stop offset="0.286593" stop-color="#5B32E5"/>
<stop offset="1" stop-color="#FA4812"/>
</linearGradient>
</defs>
</svg>
