<svg preserveAspectRatio="none" width="100%" height="100%" overflow="visible" style="display: block;" viewBox="0 0 28.9292 52.4223" fill="none" xmlns="http://www.w3.org/2000/svg">
<path id="Vector 440" d="M9.11666 50.8205L9.2818 50.3486L9.11666 50.8205ZM28.5284 51.3106C28.7991 51.2557 28.974 50.9918 28.9191 50.7212C28.8643 50.4506 28.6004 50.2756 28.3298 50.3305L28.4291 50.8205L28.5284 51.3106ZM9.11666 0.201592C8.65939 -0.000653684 8.65927 -0.000390887 8.65908 3.85195e-05C8.65892 0.000404298 8.65866 0.00100072 8.65833 0.0017312C8.65769 0.00319234 8.65675 0.00531806 8.65553 0.00810355C8.65307 0.0136745 8.64946 0.0218846 8.64473 0.0326951C8.63525 0.0543162 8.62126 0.0863397 8.60298 0.128457C8.56642 0.212691 8.51268 0.337304 8.44355 0.499826C8.3053 0.824863 8.10545 1.30157 7.85823 1.9102C7.36381 3.12735 6.67971 4.87258 5.91973 6.9877C4.40051 11.2159 2.57472 16.9316 1.35653 22.8665C0.140222 28.7921 -0.480082 34.9811 0.445391 40.1376C1.37382 45.3105 3.87789 49.5171 8.95151 51.2925L9.11666 50.8205L9.2818 50.3486C4.66165 48.7319 2.31882 44.915 1.42966 39.9609C0.537552 34.9903 1.12897 28.9485 2.33611 23.0675C3.54136 17.1957 5.35074 11.5286 6.86083 7.32584C7.61551 5.22546 8.2946 3.49309 8.78471 2.28654C9.02974 1.6833 9.22749 1.21163 9.36377 0.89124C9.43191 0.73105 9.48467 0.608693 9.52029 0.526634C9.5381 0.485605 9.55162 0.454651 9.56064 0.434082C9.56514 0.423798 9.56852 0.416109 9.57075 0.411056C9.57186 0.408529 9.57268 0.406661 9.57322 0.405456C9.57348 0.404853 9.57366 0.404449 9.57379 0.404147C9.5739 0.403909 9.57393 0.403837 9.11666 0.201592ZM9.11666 50.8205L8.95151 51.2925C12.5986 52.5687 17.5166 52.5592 21.4685 52.2486C23.4551 52.0924 25.2177 51.8583 26.4838 51.6633C27.1171 51.5657 27.6268 51.4779 27.9788 51.4142C28.1548 51.3824 28.2914 51.3567 28.3844 51.3388C28.431 51.3298 28.4666 51.3229 28.4907 51.3181C28.5028 51.3157 28.5121 51.3139 28.5184 51.3126C28.5215 51.312 28.5239 51.3115 28.5256 51.3111C28.5265 51.311 28.5271 51.3108 28.5276 51.3107C28.5278 51.3107 28.528 51.3107 28.5282 51.3106C28.5283 51.3106 28.5284 51.3106 28.4291 50.8205C28.3298 50.3305 28.3298 50.3305 28.3298 50.3305C28.3297 50.3305 28.3297 50.3305 28.3295 50.3306C28.3292 50.3306 28.3288 50.3307 28.3281 50.3308C28.3269 50.3311 28.3248 50.3315 28.3221 50.3321C28.3166 50.3332 28.3082 50.3348 28.2969 50.3371C28.2744 50.3415 28.2404 50.3482 28.1957 50.3568C28.1061 50.374 27.9731 50.3991 27.8009 50.4302C27.4565 50.4924 26.9554 50.5789 26.3316 50.675C25.0835 50.8672 23.3462 51.0979 21.3902 51.2516C17.4569 51.5608 12.7187 51.5513 9.2818 50.3486L9.11666 50.8205Z" fill="url(#paint0_linear_0_4)"/>
<defs>
<linearGradient id="paint0_linear_0_4" x1="0.499961" y1="18.743" x2="13.1174" y2="52.4269" gradientUnits="userSpaceOnUse">
<stop offset="0.286593" stop-color="#5B32E5"/>
<stop offset="1" stop-color="#FA4812"/>
</linearGradient>
</defs>
</svg>
