<svg preserveAspectRatio="none" width="100%" height="100%" overflow="visible" style="display: block;" viewBox="0 0 884.475 640" fill="none" xmlns="http://www.w3.org/2000/svg">
<g id="Lines Pattern" opacity="0.3">
<path id="Vector" opacity="0.1" d="M824.41 640L824.41 2.61068e-05M884.475 579.959H0M884.475 495.505H0M884.475 416.33H0M884.475 337.155H0M884.475 257.979H0M884.475 178.804H0M884.475 99.6289H0M739.923 640L739.923 2.61068e-05M655.436 640L655.436 2.61068e-05M570.948 640L570.948 2.61068e-05M486.461 640L486.461 2.61068e-05M401.974 640L401.974 2.61068e-05M317.487 640L317.487 2.61068e-05M233 640L233 2.61068e-05M148.513 640L148.513 2.61068e-05M64.0254 640L64.0255 2.61068e-05" stroke="url(#paint0_linear_0_4)"/>
</g>
<defs>
<linearGradient id="paint0_linear_0_4" x1="65.3456" y1="640" x2="65.3456" y2="1.88695e-08" gradientUnits="userSpaceOnUse">
<stop stop-color="#71ACCE"/>
<stop offset="1" stop-color="white" stop-opacity="0.3"/>
</linearGradient>
</defs>
</svg>
