<svg preserveAspectRatio="none" width="100%" height="100%" overflow="visible" style="display: block;" viewBox="0 0 251.32 170.61" fill="none" xmlns="http://www.w3.org/2000/svg">
<g id="4">
<path id="Vector" d="M244.569 29.9974L214.072 69.8377C225.402 73.1186 234.403 78.8994 241.077 87.1799C247.906 95.4604 251.32 105.303 251.32 116.709C251.32 133.582 245.655 146.784 234.326 156.314C223.307 165.845 209.572 170.61 193.121 170.61C180.239 170.61 168.832 167.642 158.899 161.705C148.967 155.611 141.75 147.018 137.249 135.926L164.719 119.99C168.599 132.645 178.066 138.972 193.121 138.972C201.346 138.972 207.709 137.019 212.21 133.113C216.866 129.051 219.194 123.583 219.194 116.709C219.194 109.99 216.866 104.6 212.21 100.538C207.709 96.4759 201.346 94.4449 193.121 94.4449H186.137L173.798 75.6965L205.924 33.5127H142.138V3.28101H244.569V29.9974Z" fill="var(--fill-0, #C7DEF1)"/>
<path id="Vector_2" d="M65.1834 170.61C44.8524 170.61 28.8669 162.876 17.227 147.409C5.74234 131.629 0 110.928 0 85.305C0 59.6823 5.74234 39.0591 17.227 23.4354C28.8669 7.81181 44.8524 0 65.1834 0C85.8248 0 101.81 7.81181 113.14 23.4354C124.624 39.0591 130.367 59.6823 130.367 85.305C130.367 110.928 124.624 131.629 113.14 147.409C101.81 162.876 85.8248 170.61 65.1834 170.61ZM98.4735 85.305C98.4735 67.8065 95.6023 54.4483 89.86 45.2304C84.2728 36.0125 76.0473 31.4035 65.1834 31.4035C54.3195 31.4035 46.094 36.0125 40.5068 45.2304C34.9197 54.4483 32.1261 67.8065 32.1261 85.305C32.1261 102.803 34.9197 116.162 40.5068 125.38C46.094 134.441 54.3195 138.972 65.1834 138.972C76.0473 138.972 84.2728 134.363 89.86 125.145C95.6023 115.927 98.4735 102.647 98.4735 85.305Z" fill="var(--fill-0, #C7DEF1)"/>
</g>
</svg>
