<svg preserveAspectRatio="none" width="100%" height="100%" overflow="visible" style="display: block;" viewBox="0 0 251.306 170.615" fill="none" xmlns="http://www.w3.org/2000/svg">
<g id="3">
<path id="Vector" d="M251.306 167.334H141.625V143.194L197.637 85.5417C210.136 72.2613 216.386 61.3244 216.386 52.7312C216.386 46.3253 214.355 41.1694 210.293 37.2634C206.387 33.3574 201.309 31.4043 195.059 31.4043C182.56 31.4043 173.42 37.8102 167.639 50.6219L140.453 34.6854C145.453 23.5923 152.718 15.0772 162.249 9.14008C171.936 3.04669 182.716 0 194.59 0C209.433 0 222.167 4.68722 232.791 14.0616C243.416 23.2798 248.728 35.7791 248.728 51.5594C248.728 68.5896 239.744 86.0886 221.776 104.056L189.669 136.164H251.306V167.334Z" fill="var(--fill-0, #C7DEF1)"/>
<path id="Vector_2" d="M65.621 170.615C45.1535 170.615 29.0607 162.881 17.3427 147.413C5.7809 131.633 0 110.931 0 85.3073C0 59.6839 5.7809 39.0601 17.3427 23.4361C29.0607 7.81203 45.1535 0 65.621 0C86.401 0 102.494 7.81203 113.899 23.4361C125.461 39.0601 131.242 59.6839 131.242 85.3073C131.242 110.931 125.461 131.633 113.899 147.413C102.494 162.881 86.401 170.615 65.621 170.615ZM99.1346 85.3073C99.1346 67.8084 96.2441 54.4498 90.4632 45.2316C84.8386 36.0134 76.5578 31.4043 65.621 31.4043C54.6842 31.4043 46.4034 36.0134 40.7788 45.2316C35.1541 54.4498 32.3418 67.8084 32.3418 85.3073C32.3418 102.806 35.1541 116.165 40.7788 125.383C46.4034 134.445 54.6842 138.976 65.621 138.976C76.5578 138.976 84.8386 134.367 90.4632 125.149C96.2441 115.93 99.1346 102.65 99.1346 85.3073Z" fill="var(--fill-0, #C7DEF1)"/>
</g>
</svg>
