<svg preserveAspectRatio="none" width="100%" height="100%" overflow="visible" style="display: block;" viewBox="0 0 249.475 203.984" fill="none" xmlns="http://www.w3.org/2000/svg">
<g id="2">
<path id="Vector" d="M164.295 22.1367L215.851 3.92383H249.475V200.062H210.808V44.8327L173.822 55.2L164.295 22.1367Z" fill="var(--fill-0, #F3F8FC)"/>
<path id="Vector_2" d="M78.4554 203.984C53.9848 203.984 34.7445 194.737 20.7346 176.244C6.91154 157.378 0 132.627 0 101.992C0 71.357 6.91154 46.6996 20.7346 28.0198C34.7445 9.33993 53.9848 0 78.4554 0C103.3 0 122.54 9.33993 136.176 28.0198C149.999 46.6996 156.911 71.357 156.911 101.992C156.911 132.627 149.999 157.378 136.176 176.244C122.54 194.737 103.3 203.984 78.4554 203.984ZM118.524 101.992C118.524 81.0706 115.068 65.0993 108.156 54.0782C101.432 43.0571 91.5313 37.5465 78.4554 37.5465C65.3795 37.5465 55.4792 43.0571 48.7544 54.0782C42.0297 65.0993 38.6673 81.0706 38.6673 101.992C38.6673 122.913 42.0297 138.885 48.7544 149.906C55.4792 160.74 65.3795 166.157 78.4554 166.157C91.5313 166.157 101.432 160.647 108.156 149.626C115.068 138.605 118.524 122.727 118.524 101.992Z" fill="var(--fill-0, #F3F8FC)"/>
</g>
</svg>
